<?xml version="1.0" encoding="iso-8859-1"?>
<!-- Generator: Adobe Illustrator 18.0.0, SVG Export Plug-In . SVG Version: 6.00 Build 0)  -->
<!DOCTYPE svg PUBLIC "-//W3C//DTD SVG 1.1//EN" "http://www.w3.org/Graphics/SVG/1.1/DTD/svg11.dtd">
<svg version="1.1" id="Layer_1" xmlns="http://www.w3.org/2000/svg" xmlns:xlink="http://www.w3.org/1999/xlink" x="0px" y="0px"
	 viewBox="0 0 536.667 247.333" style="enable-background:new 0 0 536.667 247.333;" xml:space="preserve">
<g>
	<path style="fill:none;stroke:#6D6E71;stroke-width:7;stroke-miterlimit:10;" d="M119.93,82.516c0,0,39.822-70.516,102.25-70.516"
		/>
	<path style="fill:none;stroke:#6D6E71;stroke-width:7;stroke-miterlimit:10;" d="M324.43,82.516c0,0-39.822-70.516-102.25-70.516"
		/>
</g>
<g>
	<path style="fill:none;stroke:#6D6E71;stroke-width:7;stroke-miterlimit:10;" d="M224.259,166.372c0,0,39.822,70.516,102.25,70.516
		"/>
	<path style="fill:none;stroke:#6D6E71;stroke-width:7;stroke-miterlimit:10;" d="M428.759,166.372c0,0-39.822,70.516-102.25,70.516
		"/>
</g>
<line style="fill:none;stroke:#6D6E71;stroke-width:7;stroke-miterlimit:10;" x1="259.241" y1="124.444" x2="278.583" y2="124.444"/>
<line style="fill:none;stroke:#6D6E71;stroke-width:7;stroke-miterlimit:10;" x1="158.351" y1="124.444" x2="191.018" y2="124.444"/>
<radialGradient id="SVGID_1_" cx="212.902" cy="114.0773" r="44.921" gradientTransform="matrix(1.0002 0 0 1.0002 -0.0262 0.0165)" gradientUnits="userSpaceOnUse">
	<stop  offset="0" style="stop-color:#F69787"/>
	<stop  offset="0.1775" style="stop-color:#E7796B"/>
	<stop  offset="0.4201" style="stop-color:#D85752"/>
	<stop  offset="0.6459" style="stop-color:#CE3C41"/>
	<stop  offset="0.8461" style="stop-color:#C82A38"/>
	<stop  offset="1" style="stop-color:#C62235"/>
	<stop  offset="1" style="stop-color:#C72235"/>
	<stop  offset="1" style="stop-color:#E11D3A"/>
	<stop  offset="1" style="stop-color:#ED1A3C"/>
</radialGradient>
<path style="fill:url(#SVGID_1_);" d="M266.74,122.106c1.351,26.659-20.55,48.558-47.21,47.206
	c-22.827-1.157-41.374-19.704-42.532-42.529c-1.352-26.659,20.549-48.558,47.209-47.208
	C247.035,80.732,265.584,99.28,266.74,122.106z"/>
<line style="fill:none;stroke:#6D6E71;stroke-width:7;stroke-miterlimit:10;" x1="368.739" y1="124.444" x2="387.522" y2="124.444"/>
<radialGradient id="SVGID_2_" cx="110.9838" cy="114.0773" r="44.921" gradientTransform="matrix(1.0002 0 0 1.0002 -0.0262 0.0165)" gradientUnits="userSpaceOnUse">
	<stop  offset="0" style="stop-color:#F69787"/>
	<stop  offset="0.1775" style="stop-color:#E7796B"/>
	<stop  offset="0.4201" style="stop-color:#D85752"/>
	<stop  offset="0.6459" style="stop-color:#CE3C41"/>
	<stop  offset="0.8461" style="stop-color:#C82A38"/>
	<stop  offset="1" style="stop-color:#C62235"/>
	<stop  offset="1" style="stop-color:#C72235"/>
	<stop  offset="1" style="stop-color:#E11D3A"/>
	<stop  offset="1" style="stop-color:#ED1A3C"/>
</radialGradient>
<path style="fill:url(#SVGID_2_);" d="M164.801,122.106c1.351,26.659-20.55,48.558-47.21,47.206
	c-22.827-1.157-41.374-19.704-42.532-42.529c-1.352-26.659,20.549-48.558,47.209-47.208
	C145.096,80.732,163.645,99.28,164.801,122.106z"/>
<g>
	<rect x="101.646" y="92.775" style="fill:none;" width="65.928" height="71.771"/>
	<path style="fill:#FFFFFF;" d="M106.907,142.427c3.206,1.973,7.891,3.617,12.823,3.617c7.315,0,11.59-3.863,11.59-9.453
		c0-5.179-2.959-8.138-10.439-11.015c-9.042-3.206-14.631-7.891-14.631-15.7c0-8.631,7.151-15.042,17.919-15.042
		c5.672,0,9.782,1.315,12.248,2.712l-1.973,5.836c-1.808-0.986-5.507-2.63-10.521-2.63c-7.562,0-10.439,4.521-10.439,8.302
		c0,5.179,3.37,7.727,11.015,10.686c9.371,3.617,14.138,8.138,14.138,16.276c0,8.548-6.33,15.946-19.399,15.946
		c-5.343,0-11.179-1.562-14.139-3.534L106.907,142.427z"/>
</g>
<radialGradient id="SVGID_3_" cx="314.8201" cy="114.0773" r="44.921" gradientTransform="matrix(1.0002 0 0 1.0002 -0.0262 0.0165)" gradientUnits="userSpaceOnUse">
	<stop  offset="0" style="stop-color:#F69787"/>
	<stop  offset="0.1775" style="stop-color:#E7796B"/>
	<stop  offset="0.4201" style="stop-color:#D85752"/>
	<stop  offset="0.6459" style="stop-color:#CE3C41"/>
	<stop  offset="0.8461" style="stop-color:#C82A38"/>
	<stop  offset="1" style="stop-color:#C62235"/>
	<stop  offset="1" style="stop-color:#C72235"/>
	<stop  offset="1" style="stop-color:#E11D3A"/>
	<stop  offset="1" style="stop-color:#ED1A3C"/>
</radialGradient>
<path style="fill:url(#SVGID_3_);" d="M368.68,122.106c1.351,26.659-20.55,48.558-47.21,47.206
	c-22.827-1.157-41.374-19.704-42.532-42.529c-1.352-26.659,20.549-48.558,47.209-47.208
	C348.974,80.732,367.523,99.28,368.68,122.106z"/>
<radialGradient id="SVGID_4_" cx="416.8926" cy="114.0773" r="44.921" gradientTransform="matrix(1.0002 0 0 1.0002 -0.0262 0.0165)" gradientUnits="userSpaceOnUse">
	<stop  offset="0" style="stop-color:#F69787"/>
	<stop  offset="0.1775" style="stop-color:#E7796B"/>
	<stop  offset="0.4201" style="stop-color:#D85752"/>
	<stop  offset="0.6459" style="stop-color:#CE3C41"/>
	<stop  offset="0.8461" style="stop-color:#C82A38"/>
	<stop  offset="1" style="stop-color:#C62235"/>
	<stop  offset="1" style="stop-color:#C72235"/>
	<stop  offset="1" style="stop-color:#E11D3A"/>
	<stop  offset="1" style="stop-color:#ED1A3C"/>
</radialGradient>
<path style="fill:url(#SVGID_4_);" d="M470.773,122.106c1.351,26.659-20.55,48.558-47.21,47.206
	c-22.827-1.157-41.374-19.704-42.532-42.529c-1.352-26.659,20.549-48.558,47.209-47.208
	C451.068,80.732,469.616,99.28,470.773,122.106z"/>
<g>
	<rect x="202.984" y="91.775" style="fill:none;" width="65.928" height="71.771"/>
	<path style="fill:#FFFFFF;" d="M209.231,95.396c3.453-0.575,7.973-1.068,13.728-1.068c7.069,0,12.248,1.644,15.535,4.603
		c3.042,2.63,4.85,6.658,4.85,11.59c0,5.014-1.479,8.96-4.274,11.837c-3.781,4.028-9.946,6.083-16.933,6.083
		c-2.137,0-4.11-0.082-5.754-0.493v22.194h-7.151V95.396z M216.383,122.111c1.562,0.411,3.535,0.575,5.918,0.575
		c8.631,0,13.892-4.192,13.892-11.836c0-7.316-5.179-10.851-13.07-10.851c-3.124,0-5.507,0.247-6.74,0.576V122.111z"/>
</g>
<g>
	<rect x="302.965" y="91.775" style="fill:none;" width="65.928" height="71.771"/>
	<path style="fill:#FFFFFF;" d="M318.173,132.715l-5.754,17.426h-7.398l18.823-55.402h8.631l18.906,55.402h-7.645l-5.918-17.426
		H318.173z M336.339,127.125l-5.426-15.947c-1.232-3.617-2.055-6.905-2.877-10.11h-0.164c-0.822,3.288-1.727,6.658-2.795,10.028
		l-5.425,16.029H336.339z"/>
</g>
<g>
	<rect x="404.969" y="93.219" style="fill:none;" width="65.928" height="71.771"/>
	<path style="fill:#FFFFFF;" d="M411.216,151.585V96.182h7.81l17.755,28.03c4.109,6.494,7.315,12.329,9.946,18.001l0.164-0.082
		c-0.657-7.397-0.822-14.138-0.822-22.769v-23.18h6.74v55.402h-7.233l-17.591-28.112c-3.863-6.165-7.562-12.494-10.356-18.495
		l-0.247,0.082c0.411,6.987,0.575,13.645,0.575,22.852v23.673H411.216z"/>
</g>
<g>
</g>
<g>
</g>
<g>
</g>
<g>
</g>
<g>
</g>
<g>
</g>
</svg>
